# xmcd CD database file
#
# Track frame offsets:
#	150
#	20601
#	44367
#	68037
#	92145
#	116865
#	133889
#	157308
#	174998
#	197737
#	221526
#	243035
#	268576
#	289040
#	316011
#
# Disc length: 4514 seconds
#
# Revision: 0
# Processed by: cddbd v1.5.2PL0 Copyright (c) Steve Scherf et al.
# Submitted via: CDex 1.51
#
DISCID=db11a00f
DTITLE=Various Artist - D's Salsa 3
DYEAR=2010
DGENRE=Salsa
TTITLE0=DLG - No Morira
TTITLE1=La India - Me Canse De Ser La Otra
TTITLE2=La India - Mi Mayor Venganza
TTITLE3=La India - Seduceme (salsa version)
TTITLE4=La India - Si Tu Eres Mi Hombre Y Yo Tu Mujer
TTITLE5=Los Adolescentes - Dame una oportunidad
TTITLE6=Marc Anthony - Da La Vuelta
TTITLE7=Marc Anthony - Me Haces Falta [*]
TTITLE8=Marc Anthony - Tu Amor Me Hace Bien [Salsa Ve
TTITLE9=Grupo Niche - UNA AVENTURA (Grupo Niche)
TTITLE10=Grupo Niche - La Magia de Tus Besos
TTITLE11=Grupo Niche - Duele Mas (salsa)
TTITLE12=Grupo Niche - Eres (salsa)
TTITLE13=Grupo Niche - Gotas De Lluvia
TTITLE14=Grupo Niche - Grupo Niche - Lo Bonito y Lo Feo(1)
EXTD=YEAR: 2010
EXTT0=
EXTT1=
EXTT2=
EXTT3=
EXTT4=
EXTT5=
EXTT6=
EXTT7=
EXTT8=
EXTT9=
EXTT10=
EXTT11=
EXTT12=
EXTT13=
EXTT14=
PLAYORDER=
